<svg width="31" height="31" viewBox="0 0 31 31" fill="none" xmlns="http://www.w3.org/2000/svg">
<circle cx="15.5" cy="15.5" r="15.5" fill="#94664C"/>
<path d="M9.80678 21.4163C10.7068 22.5 12.3808 22.5 15.7303 22.5H16.2703C19.6198 22.5 21.2945 22.5 22.1945 21.4163M9.80678 21.4163C8.90678 20.3318 9.21578 18.6863 9.83303 15.3938C10.2718 13.0538 10.4908 11.883 11.324 11.1915M22.1945 21.4163C23.0945 20.3318 22.7855 18.6863 22.1683 15.3938C21.7295 13.0538 21.5098 11.883 20.6765 11.1915M20.6765 11.1915C19.844 10.5 18.6523 10.5 16.271 10.5H15.7295C13.3483 10.5 12.1573 10.5 11.324 11.1915" stroke="white" stroke-width="1.5"/>
<path d="M18.25 14.25L19 18.75M13.75 14.25L13 18.75M13.75 10.5V9.75C13.75 9.15326 13.9871 8.58097 14.409 8.15901C14.831 7.73705 15.4033 7.5 16 7.5C16.5967 7.5 17.169 7.73705 17.591 8.15901C18.0129 8.58097 18.25 9.15326 18.25 9.75V10.5" stroke="white" stroke-width="1.5" stroke-linecap="round"/>
</svg>
