<svg width="24" height="24" viewBox="0 0 24 24" fill="none" xmlns="http://www.w3.org/2000/svg">
<path d="M21.7953 20.2039L17.3431 15.7499C18.678 14.0103 19.3013 11.8281 19.0864 9.64594C18.8715 7.46377 17.8347 5.44503 16.1861 3.99924C14.5376 2.55344 12.4008 1.78886 10.2092 1.86058C8.01768 1.93231 5.93546 2.83497 4.38497 4.38546C2.83448 5.93595 1.93182 8.01817 1.86009 10.2097C1.78837 12.4013 2.55295 14.538 3.99875 16.1866C5.44454 17.8352 7.46328 18.872 9.64545 19.0869C11.8276 19.3018 14.0098 18.6785 15.7494 17.3436L20.2053 21.8005C20.31 21.9051 20.4342 21.9882 20.5709 22.0448C20.7077 22.1014 20.8542 22.1306 21.0022 22.1306C21.1502 22.1306 21.2967 22.1014 21.4335 22.0448C21.5702 21.9882 21.6944 21.9051 21.7991 21.8005C21.9037 21.6958 21.9867 21.5716 22.0434 21.4349C22.1 21.2982 22.1291 21.1516 22.1291 21.0036C22.1291 20.8556 22.1 20.7091 22.0434 20.5724C21.9867 20.4356 21.9037 20.3114 21.7991 20.2067L21.7953 20.2039ZM4.12438 10.4999C4.12438 9.23902 4.49827 8.00647 5.19876 6.95811C5.89926 5.90975 6.8949 5.09265 8.05978 4.61014C9.22466 4.12763 10.5065 4.00138 11.7431 4.24737C12.9797 4.49335 14.1156 5.10051 15.0072 5.99207C15.8987 6.88363 16.5059 8.01954 16.7519 9.25617C16.9979 10.4928 16.8716 11.7746 16.3891 12.9395C15.9066 14.1044 15.0895 15.1 14.0411 15.8005C12.9928 16.501 11.7602 16.8749 10.4994 16.8749C8.80916 16.8731 7.18866 16.2009 5.9935 15.0058C4.79833 13.8106 4.12612 12.1901 4.12438 10.4999Z" fill="black" fill-opacity="0.4"/>
</svg>
